<svg xmlns="http://www.w3.org/2000/svg" xmlns:xlink="http://www.w3.org/1999/xlink" width="159.725" height="71.879" viewBox="0 0 159.725 71.879">
  <defs>
    <style>
      .cls-1 {
        fill: #374267;
        stroke: #374267;
        stroke-width: 10px;
      }

      .cls-1, .cls-3, .cls-4 {
        stroke-linecap: round;
      }

      .cls-1, .cls-4 {
        stroke-linejoin: round;
      }

      .cls-2 {
        opacity: 0.72;
      }

      .cls-3, .cls-4 {
        fill: none;
        stroke: #fff;
        stroke-width: 2px;
      }

      .cls-5 {
        filter: url(#Vereinigungsmenge_2);
      }
    </style>
    <filter id="Vereinigungsmenge_2" x="0" y="0" width="159.725" height="71.879" filterUnits="userSpaceOnUse">
      <feOffset dy="3" input="SourceAlpha"/>
      <feGaussianBlur stdDeviation="3" result="blur"/>
      <feFlood flood-opacity="0.161"/>
      <feComposite operator="in" in2="blur"/>
      <feComposite in="SourceGraphic"/>
    </filter>
  </defs>
  <g id="Gruppe_38" data-name="Gruppe 38" transform="translate(-624.473 -911.001)">
    <g id="Gruppe_21" data-name="Gruppe 21" transform="translate(633.473 917)">
      <g class="cls-5" transform="matrix(1, 0, 0, 1, -9, -6)">
        <path id="Vereinigungsmenge_2-2" data-name="Vereinigungsmenge 2" class="cls-1" d="M-10515.309-3832.309h-105.479v-35.584h123.994v19.411l7.73,24.468Z" transform="translate(10634.79 3878.89)"/>
      </g>
    </g>
    <g id="Gruppe_26" data-name="Gruppe 26" class="cls-2" transform="translate(646.626 927.162)">
      <line id="Linie_10" data-name="Linie 10" class="cls-3" y2="22.2" transform="translate(3.027 0.226)"/>
      <line id="Linie_11" data-name="Linie 11" class="cls-3" y2="22.2" transform="translate(22.2 20.071) rotate(90)"/>
      <path id="Pfad_10" data-name="Pfad 10" class="cls-4" d="M2233.237,2193.606l6.448-10.972,4.224,2.57,8-11.669" transform="translate(-2229.714 -2173.535)"/>
    </g>
    <g id="Gruppe_27" data-name="Gruppe 27" class="cls-2" transform="translate(687.147 928.24)">
      <g id="Gruppe_23" data-name="Gruppe 23" transform="translate(0 0)">
        <line id="Linie_15" data-name="Linie 15" class="cls-3" y1="10.527" transform="translate(20.977 12.744) rotate(45)"/>
        <line id="Linie_16" data-name="Linie 16" class="cls-3" y1="10.527" transform="translate(20.977 20.187) rotate(135)"/>
        <path id="Pfad_11" data-name="Pfad 11" class="cls-4" d="M2352.234,2183.36h2.3l2.755,7.3,3.307-20.023h15.8" transform="translate(-2352.234 -2170.633)"/>
      </g>
    </g>
    <g id="Gruppe_28" data-name="Gruppe 28" class="cls-2" transform="translate(729.371 927.388)">
      <line id="Linie_17" data-name="Linie 17" class="cls-3" y2="12.987" transform="translate(10.557 0)"/>
      <path id="Pfad_27" data-name="Pfad 27" class="cls-4" d="M0,16.114,8.057,8.057,0,0" transform="translate(18.643 6.535) rotate(90)"/>
      <path id="Pfad_28" data-name="Pfad 28" class="cls-4" d="M0,20.147H21.373V20H0Z" transform="translate(0 -0.143)"/>
    </g>
  </g>
</svg>
